<?xml version="1.0" encoding="UTF-8"?>
<svg width="3577px" height="2709px" viewBox="0 0 3577 2709" version="1.1" xmlns="http://www.w3.org/2000/svg" xmlns:xlink="http://www.w3.org/1999/xlink">
    <!-- Generator: Sketch 55.1 (78136) - https://sketchapp.com -->
    <title>Group</title>
    <desc>Created with Sketch.</desc>
    <g id="Page-1" stroke="none" stroke-width="1" fill="none" fill-rule="evenodd">
        <g id="Group-3" transform="translate(-884.000000, -1607.000000)" fill="#FFFFFF">
            <g id="Group" transform="translate(884.000000, 1204.000000)">
                <text id="By-Aubrey" font-family="SignPainter-HouseScriptSemibold, SignPainter" font-size="800" font-style="condensed" font-weight="500">
                    <tspan x="461.2" y="2820">By Aubrey</tspan>
                </text>
                <g id="Group-2">
                    <path d="M252.197196,666.342317 C279.445795,677.872648 310.882329,665.130475 322.412661,637.881877 C327.226754,626.505161 327.961253,613.814312 324.49179,601.958175 L308.205422,546.303052 C341.712246,546.303052 368.874894,519.140404 368.874894,485.63358 C368.874894,478.257146 367.529702,470.942547 364.905333,464.048749 L356.212472,441.213989 L685.647575,441.213989 L685.647575,757.72377 L411.193204,757.72377 L411.193204,1057.62656 L668.066868,1057.62656 L668.066868,1358.50622 L411.193204,1358.50622 L411.193204,1706.27623 L712.995341,1706.27623 L712.995341,2022.78601 L-5.68434189e-14,2022.78601 L-5.68434189e-14,838.398596 L-5.68434189e-14,786.381582 L56.6217306,803.780001 C84.2008099,812.254351 113.906488,799.899759 127.342164,774.367371 L144.181332,742.367184 L190.755089,742.367184 C217.237536,742.367184 240.099576,723.816372 245.554296,697.90178 L252.197196,666.342317 Z M1541.24198,441.213989 L1776.62812,2022.78601 L1355.66785,2022.78601 L1335.15703,1738.51334 L1187.67443,1738.51334 L1163.25678,2022.78601 L737.41299,2022.78601 L946.428062,441.213989 L1541.24198,441.213989 Z M1323.43656,1458.14819 C1302.60006,1279.05226 1281.76388,1057.9535 1260.92738,794.845287 C1219.25438,1097.02898 1193.20915,1318.12773 1182.7909,1458.14819 L1323.43656,1458.14819 Z M2564.82982,441.213989 L2564.82982,757.72377 L2320.65333,757.72377 L2320.65333,2022.78601 L1909.46013,2022.78601 L1909.46013,757.72377 L1666.26035,757.72377 L1666.26035,441.213989 L2564.82982,441.213989 Z" id="EATS" fill-rule="nonzero"></path>
                    <text id="S" font-family="Impact" font-size="2000" font-style="condensed" font-weight="700">
                        <tspan x="2588.91016" y="2018">S</tspan>
                    </text>
                </g>
            </g>
        </g>
    </g>
</svg>